:version 1.10
:name ASF
:units
  mass 1
  length 1
  angle deg
:documentation
  ASF file generated by Kaydara
:root
  axis xyz
  order  tx ty tz rx ry rz
  position 0 0 0
  orientation 0 0 0
:bonedata
  begin
    id 1
    name LeftUpLegDummy
    direction 1 -2.30186e-007 -8.31532e-007
    length 2.93387
    axis 0 0 0 xyz
  end
  begin
    id 2
    name LeftUpLeg
    direction -1.82929e-007 -1 -1.48925e-009
    length 17.3336
    axis -3.48766 0.00143442 -0.000521554 xyz
    dof rx ry rz
  end
  begin
    id 3
    name LeftLeg
    direction -1.82929e-007 -1 -5.23717e-011
    length 14.9995
    axis 3.68178 -0.00654042 -0.000282425 xyz
    dof rx ry rz
  end
  begin
    id 4
    name LeftFoot
    direction 8.31532e-007 -4.54534e-011 1
    length 6.74421
    axis 1.87234e-006 4.66016e-005 -5.96866e-006 xyz
    dof rx ry rz
  end
  begin
    id 5
    name LeftToes
    direction 0.00818058 -0.00485161 0.999955
    length 3.85048
    axis 1.06247e-005 4.65869e-005 -5.96999e-006 xyz
    dof rx ry rz
  end
  begin
    id 6
    name SpineDummy
    direction -5.8607e-008 0.943407 -0.331637
    length 5.93572
    axis 0 0 0 xyz
  end
  begin
    id 7
    name Spine
    direction -1.04988e-007 0.999988 0.00495137
    length 10.1015
    axis -0.001389 0.000121417 6.61666e-006 xyz
    dof rx ry rz
  end
  begin
    id 8
    name Spine1
    direction 0 0 0
    length 0
    axis -0.001389 0.00012144 6.56766e-006 xyz
    dof rx ry rz
  end
  begin
    id 9
    name RightShoulderDummy
    direction -0.98348 0.17941 -0.0240696
    length 3.59882
    axis -0.001389 0.00012144 6.56766e-006 xyz
  end
  begin
    id 10
    name RightShoulder
    direction -0.978693 0.204882 0.0135597
    length 2.70001
    axis 0.215806 0.000203631 -0.00679732 xyz
    dof rx ry rz
  end
  begin
    id 11
    name RightArm
    direction -1 3.85509e-006 8.31394e-007
    length 10.2459
    axis -23.2009 -0.134239 -0.964098 xyz
    dof rx ry rz
  end
  begin
    id 12
    name RightForeArm
    direction -1 3.85569e-006 8.3129e-007
    length 8.16799
    axis -9.92322 0.0658061 0.17887 xyz
    dof rx ry rz
  end
  begin
    id 13
    name RightHand
    direction -0.992843 -0.0414604 0.112003
    length 5.28593
    axis -0.00960638 0.00330669 -0.185225 xyz
    dof rx ry rz
  end
  begin
    id 14
    name LeftShoulder1Dummy
    direction 0.983523 0.179172 -0.0240748
    length 3.59866
    axis -0.001389 0.00012144 6.56766e-006 xyz
  end
  begin
    id 15
    name LeftShoulder1
    direction 0.978627 0.205195 0.0135605
    length 2.70019
    axis -0.001389 0.00012144 6.57583e-006 xyz
    dof rx ry rz
  end
  begin
    id 16
    name LeftArm
    direction 1 3.51895e-006 -8.60188e-007
    length 10.2459
    axis -23.1894 0.134785 0.967513 xyz
    dof rx ry rz
  end
  begin
    id 17
    name LeftForeArm
    direction 1 3.51921e-006 -7.32029e-007
    length 8.16799
    axis -9.91835 -0.0656957 -0.177789 xyz
    dof rx ry rz
  end
  begin
    id 18
    name LeftHand
    direction 0.992938 -0.0411636 0.11126
    length 5.32135
    axis -0.00960237 -0.00340661 0.185177 xyz
    dof rx ry rz
  end
  begin
    id 19
    name HEadDummy
    direction 1.01974e-006 0.999861 -0.016675
    length 2.99946
    axis -0.001389 0.00012144 6.56766e-006 xyz
  end
  begin
    id 20
    name HEad
    direction -0.0222689 0.980941 0.193023
    length 5.12695
    axis -0.001389 0.00012144 6.56766e-006 xyz
    dof rx ry rz
  end
  begin
    id 21
    name RightUpLegDummy
    direction -1 2.30186e-007 8.31532e-007
    length 2.93387
    axis 0 0 0 xyz
  end
  begin
    id 22
    name RightUpLeg
    direction -1.82966e-007 -1 1.56832e-007
    length 17.3336
    axis -3.4909 -0.000906625 0.00028951 xyz
    dof rx ry rz
  end
  begin
    id 23
    name RightLeg
    direction -1.82786e-007 -1 -1.80317e-007
    length 14.9995
    axis 3.68513 0.0193739 -0.131021 xyz
    dof rx ry rz
  end
  begin
    id 24
    name RightFoot
    direction 8.31721e-007 -4.63324e-011 1
    length 6.74421
    axis 4.81691e-005 -0.120479 -0.188785 xyz
    dof rx ry rz
  end
  begin
    id 25
    name RightToes
    direction 0.00124746 -0.014064 0.9999
    length 3.85082
    axis 0.000481921 0.542163 -0.142575 xyz
    dof rx ry rz
  end
:hierarchy
  begin
    root LeftUpLegDummy SpineDummy RightUpLegDummy
    LeftUpLegDummy LeftUpLeg
    LeftUpLeg LeftLeg
    LeftLeg LeftFoot
    LeftFoot LeftToes
    SpineDummy Spine
    Spine Spine1
    Spine1 RightShoulderDummy LeftShoulder1Dummy HEadDummy
    RightShoulderDummy RightShoulder
    RightShoulder RightArm
    RightArm RightForeArm
    RightForeArm RightHand
    LeftShoulder1Dummy LeftShoulder1
    LeftShoulder1 LeftArm
    LeftArm LeftForeArm
    LeftForeArm LeftHand
    HEadDummy HEad
    RightUpLegDummy RightUpLeg
    RightUpLeg RightLeg
    RightLeg RightFoot
    RightFoot RightToes
  end

:SAMPLES-PER-SECOND 30
:FULLY-SPECIFIED
:DEGREES
247
root  -9.91865 35.3107 64.3328 86.8722 84.1954 71.2207
LeftUpLeg  -20.4619 4.68494 8.21275
LeftLeg  15.4658 14.1163 2.91097
LeftFoot  6.2153 -0.0880535 1.61804
LeftToes  -4.23438 1.61378e-006 8.80029e-008
Spine  5.035 0.231066 -0.918742
Spine1  10.0289 0.637748 -1.52421
RightShoulder  0.000499367 4.96293 2.85659
RightArm  -81.5505 -36.3845 19.4082
RightForeArm  -5.146 29.7972 5.76787
RightHand  0.137879 -4.33625 -3.26574
LeftShoulder1  0.000221088 4.0356 -10.2359
LeftArm  -29.0737 21.4338 -69.8211
LeftForeArm  34.4748 -14.8111 -2.66311
LeftHand  0.0331986 3.36428 0.758909
HEad  8.26842 40.5828 -24.0129
RightUpLeg  -14.3716 -18.2277 -10.7053
RightLeg  0.659857 12.7463 -0.664593
RightFoot  8.41285 -0.109764 1.91472
RightToes  -58.7842 -0.383105 -0.393916
248
root  -9.81027 35.2543 64.0688 97.6479 84.5888 81.9373
LeftUpLeg  -21.411 6.08122 9.55753
LeftLeg  17.9977 13.3915 3.38037
LeftFoot  6.36701 -0.0881719 1.58515
LeftToes  -1.63274 1.61378e-006 8.80029e-008
Spine  5.0908 0.177809 -1.23516
Spine1  10.1352 0.582754 -1.99713
RightShoulder  0.000616473 4.87699 3.2156
RightArm  -82.6674 -36.6014 21.6912
RightForeArm  -5.81742 31.7965 6.2473
RightHand  0.097613 -4.32399 -2.21186
LeftShoulder1  -4.4116e-005 3.88004 -10.0014
LeftArm  -28.2477 21.6569 -70.4622
LeftForeArm  33.802 -14.4607 -2.59781
LeftHand  0.0470297 3.7332 1.07105
HEad  8.25028 39.9535 -23.7447
RightUpLeg  -14.0305 -16.8359 -11.3588
RightLeg  1.10666 10.1739 -0.453324
RightFoot  8.49311 -0.0862166 1.53919
RightToes  -59.0486 -0.385587 -0.394866
249
root  -9.68921 35.1906 63.7715 116.004 84.879 100.254
LeftUpLeg  -22.5773 7.98802 10.6585
LeftLeg  19.669 12.204 3.46362
LeftFoot  5.75852 -0.0663831 1.31981
LeftToes  0.444907 1.61378e-006 8.80029e-008
Spine  5.12024 0.126011 -1.39518
Spine1  10.183 0.49427 -2.34716
RightShoulder  0.000743353 4.73431 3.48446
RightArm  -84.0235 -37.1329 24.4007
RightForeArm  -6.5779 33.7352 6.73282
RightHand  0.0857656 -4.35328 -1.88339
LeftShoulder1  -0.000202225 3.70041 -9.84188
LeftArm  -27.7191 21.3104 -70.7324
LeftForeArm  32.9432 -14.1082 -2.53243
LeftHand  0.0562345 3.66056 1.38706
HEad  8.3946 39.0943 -23.3059
RightUpLeg  -13.2759 -16.3021 -11.7394
RightLeg  1.02174 8.13437 -0.375468
RightFoot  8.69294 -0.0679069 1.26028
RightToes  -58.7106 -0.382414 -0.39476
250
root  -9.53141 35.1208 63.4484 140.54 84.3366 124.832
LeftUpLeg  -23.789 9.816 11.3967
LeftLeg  19.9326 12.5627 3.62548
LeftFoot  4.89737 -0.0500282 1.16983
LeftToes  1.17439 1.61378e-006 8.80029e-008
Spine  5.16216 0.0178388 -1.43274
Spine1  10.2484 0.273745 -2.62576
RightShoulder  0.000860616 4.74171 3.89189
RightArm  -85.9515 -37.957 27.0319
RightForeArm  -7.02767 35.4792 7.18972
RightHand  0.0622564 -4.26541 -1.29963
LeftShoulder1  -0.000261599 3.4841 -9.86109
LeftArm  -27.4946 20.4662 -70.5688
LeftForeArm  32.2498 -13.5432 -2.42755
LeftHand  0.0649445 3.42451 1.79867
HEad  8.54568 38.004 -22.8408
RightUpLeg  -12.0189 -16.698 -11.9354
RightLeg  0.542595 6.46805 -0.353333
RightFoot  8.98023 -0.0520678 1.04051
RightToes  -57.7429 -0.373362 -0.391985
251
root  -9.31384 35.0198 63.0869 161.253 82.9411 145.561
LeftUpLeg  -25.134 12.4265 11.7569
LeftLeg  18.8937 13.8536 3.72303
LeftFoot  4.11505 -0.0390835 1.08785
LeftToes  1.10855 1.61378e-006 8.80029e-008
Spine  5.14607 -0.0904601 -1.45542
Spine1  10.2047 0.0623795 -2.78601
RightShoulder  0.000977708 4.70944 4.24575
RightArm  -87.2812 -38.9632 29.8849
RightForeArm  -7.94507 37.0295 7.61221
RightHand  0.0856466 -4.50973 -1.80225
LeftShoulder1  -0.000230593 3.39481 -9.77634
LeftArm  -27.1109 19.6768 -70.3743
LeftForeArm  31.403 -13.5658 -2.43233
LeftHand  0.0831289 3.33226 2.48215
HEad  8.56955 36.7693 -22.3192
RightUpLeg  -10.738 -16.2787 -11.9828
RightLeg  0.410139 3.84834 -0.219607
RightFoot  9.10956 -0.0208885 0.639706
RightToes  -55.7661 -0.355022 -0.385904
252
root  -9.04737 34.8859 62.6744 174.706 80.9359 159
LeftUpLeg  -26.3661 14.9228 11.7722
LeftLeg  16.6509 16.3961 3.71759
LeftFoot  3.40227 -0.0317411 1.06872
LeftToes  1.52468 1.61378e-006 8.80029e-008
Spine  5.05141 -0.090821 -1.50299
Spine1  9.9959 0.0757703 -3.01474
RightShoulder  0.00106606 4.78376 4.63704
RightArm  -88.8541 -40.4346 32.6902
RightForeArm  -8.57073 38.3779 7.99473
RightHand  0.104703 -4.55019 -2.26172
LeftShoulder1  -0.000117568 3.42927 -9.66669
LeftArm  -27.2201 18.7684 -70.0748
LeftForeArm  30.7727 -13.6158 -2.44203
LeftHand  0.0959572 2.83884 3.4926
HEad  8.84227 35.1171 -21.4348
RightUpLeg  -9.36023 -15.485 -11.9676
RightLeg  0.233592 0.508704 -0.0305983
RightFoot  9.09967 0.020928 0.11455
RightToes  -54.2572 -0.341173 -0.380734
253
root  -8.72692 34.7037 62.1882 -175.787 78.5232 168.495
LeftUpLeg  -27.7501 17.176 11.5301
LeftLeg  14.346 20.29 3.73449
LeftFoot  2.30492 -0.0182747 0.9084
LeftToes  3.54834 1.61378e-006 8.80029e-008
Spine  4.85487 -0.0315483 -1.53538
Spine1  9.58727 0.214773 -3.13189
RightShoulder  0.00115265 4.71883 4.92563
RightArm  -90.4123 -41.9419 35.0024
RightForeArm  -8.65029 39.1352 8.21665
RightHand  0.116742 -4.61182 -2.52495
LeftShoulder1  6.91193e-005 3.39604 -9.61957
LeftArm  -27.8464 18.0218 -69.7364
LeftForeArm  29.93 -13.5551 -2.43123
LeftHand  0.094559 2.23085 4.4698
HEad  9.10509 33.2614 -20.5354
RightUpLeg  -7.96321 -14.3514 -11.8214
RightLeg  0.365957 -3.2059 0.186158
RightFoot  8.79169 0.0636246 -0.450061
RightToes  -53.7152 -0.336232 -0.379652
254
root  -8.35183 34.4737 61.5976 -168.473 75.9749 175.992
LeftUpLeg  -29.3608 19.945 10.7102
LeftLeg  13.3655 25.8765 4.25776
LeftFoot  1.70802 -0.0131124 0.879627
LeftToes  4.81702 1.61378e-006 8.80029e-008
Spine  4.63307 0.037151 -1.52097
Spine1  9.14074 0.357069 -3.10434
RightShoulder  0.00115568 4.72394 5.10102
RightArm  -90.8687 -43.3659 36.5188
RightForeArm  -8.92608 39.3965 8.29381
RightHand  0.147521 -4.7361 -3.19171
LeftShoulder1  0.000321111 3.36136 -9.54677
LeftArm  -28.6065 17.5847 -69.4449
LeftForeArm  28.8505 -13.5897 -2.43823
LeftHand  0.103077 2.13354 5.14455
HEad  9.37594 31.3835 -19.4472
RightUpLeg  -6.34379 -13.7493 -11.4118
RightLeg  0.538117 -6.21662 0.342077
RightFoot  8.64709 0.0962041 -0.894805
RightToes  -54.3238 -0.341782 -0.380737
255
root  -7.92945 34.2165 60.875 -163.591 73.7883 -178.697
LeftUpLeg  -31.2776 24.0264 8.76919
LeftLeg  15.0051 29.7519 5.67328
LeftFoot  1.81968 -0.0175252 1.10349
LeftToes  5.16429 1.61378e-006 8.80029e-008
Spine  4.45876 0.221867 -1.58096
Spine1  8.78541 0.737915 -3.21069
RightShoulder  0.00105111 4.72327 5.05318
RightArm  -90.9183 -44.5163 37.9345
RightForeArm  -9.15456 39.6554 8.37091
RightHand  0.189518 -4.97683 -3.98356
LeftShoulder1  0.000630049 3.47072 -9.52167
LeftArm  -29.5009 17.2375 -69.1158
LeftForeArm  28.3039 -13.6995 -2.45894
LeftHand  0.110785 2.16775 5.4631
HEad  9.43012 29.9364 -18.5919
RightUpLeg  -5.23809 -13.6461 -11.1398
RightLeg  2.25918 -8.32848 0.208635
RightFoot  7.91344 0.102565 -1.10512
RightToes  -55.0176 -0.348136 -0.383356
256
root  -7.46051 33.9479 59.9962 -159.845 71.9846 -174.31
LeftUpLeg  -32.855 28.1538 6.45067
LeftLeg  18.4226 31.4087 7.8056
LeftFoot  2.52729 -0.0363372 1.6472
LeftToes  5.13944 1.61378e-006 8.80029e-008
Spine  4.22961 0.43945 -1.65758
Spine1  8.32409 1.188 -3.3462
RightShoulder  0.000856308 4.85677 4.98655
RightArm  -89.9651 -45.2811 38.4709
RightForeArm  -8.91584 39.5158 8.32953
RightHand  0.225758 -5.14083 -4.64973
LeftShoulder1  0.000987575 3.51506 -9.53317
LeftArm  -30.2541 17.5195 -68.7421
LeftForeArm  27.9822 -13.6899 -2.4573
LeftHand  0.115312 2.23309 5.52411
HEad  9.61944 28.9561 -17.7976
RightUpLeg  -4.03414 -13.3179 -11.1103
RightLeg  4.21162 -10.1238 -0.0894407
RightFoot  7.79537 0.11636 -1.33005
RightToes  -56.7029 -0.363687 -0.388834
257
root  -6.99237 33.7162 58.9448 -157.481 70.2247 -171.015
LeftUpLeg  -32.1983 28.8904 6.49573
LeftLeg  19.992 31.3643 8.65755
LeftFoot  7.10289 -0.284238 4.57734
LeftToes  -5.59115 1.61378e-006 8.80029e-008
Spine  3.967 0.595188 -1.73609
Spine1  7.79734 1.53 -3.49201
RightShoulder  0.000592378 4.99947 4.8682
RightArm  -88.2073 -45.5902 38.54
RightForeArm  -8.72097 39.691 8.38268
RightHand  0.306484 -5.47941 -6.02081
LeftShoulder1  0.00138533 3.5178 -9.7782
LeftArm  -30.6493 18.3353 -68.2138
LeftForeArm  28.2193 -13.7023 -2.45951
LeftHand  0.11819 2.37794 5.30455
HEad  10.3012 27.7907 -16.9657
RightUpLeg  -2.65819 -13.0625 -11.6098
RightLeg  6.59513 -11.1321 -0.558477
RightFoot  8.87282 0.158699 -1.66758
RightToes  -59.8801 -0.393415 -0.397908
258
root  -6.60257 33.5892 57.7524 -157.905 68.0951 -170.605
LeftUpLeg  -33.4317 28.7336 6.06387
LeftLeg  24.9036 26.2357 9.73776
LeftFoot  8.59726 -0.348005 4.62729
LeftToes  -0.322591 1.61378e-006 8.80029e-008
Spine  3.82991 0.599658 -1.9932
Spine1  7.49976 1.59558 -4.00333
RightShoulder  0.000258534 5.16948 4.73379
RightArm  -89.0348 -44.9477 39.4179
RightForeArm  -6.82546 39.8934 8.44824
RightHand  0.356947 -5.53465 -6.99616
LeftShoulder1  0.00181496 3.49504 -10.6611
LeftArm  -30.1856 18.5425 -66.8813
LeftForeArm  28.419 -13.6229 -2.44462
LeftHand  0.121639 2.56697 5.04147
HEad  11.381 26.0055 -15.9967
RightUpLeg  -1.85864 -14.1542 -13.0268
RightLeg  10.3525 -11.5191 -1.33319
RightFoot  10.9295 0.240151 -2.13215
RightToes  -63.8147 -0.430852 -0.406839
259
root  -6.20946 33.6272 56.4564 -160.82 65.849 -172.447
LeftUpLeg  -34.0481 27.2229 5.12403
LeftLeg  31.189 23.1205 11.5526
LeftFoot  4.07465 -0.0734119 2.06347
LeftToes  5.163 1.61378e-006 8.80029e-008
Spine  3.87444 0.73635 -2.56552
Spine1  7.52897 1.94517 -5.12921
RightShoulder  1.33521e-005 5.46051 5.19753
RightArm  -90.6892 -44.3659 40.4248
RightForeArm  -5.29519 39.7383 8.40462
RightHand  0.415081 -5.42229 -8.36844
LeftShoulder1  0.0022681 3.19454 -10.955
LeftArm  -29.7902 18.5654 -65.6579
LeftForeArm  28.9209 -13.8236 -2.48178
LeftHand  0.123068 2.69576 4.84436
HEad  13.0076 23.5417 -14.7967
RightUpLeg  -1.03941 -14.3422 -15.1715
RightLeg  14.7982 -13.4335 -2.60833
RightFoot  14.8869 0.501996 -3.46322
RightToes  -68.2057 -0.473243 -0.413747
